<mxfile host="app.diagrams.net" agent="Mozilla/5.0 (Windows NT 10.0; Win64; x64) AppleWebKit/537.36 (KHTML, like Gecko) Chrome/127.0.0.0 Safari/537.36 OPR/113.0.0.0" version="24.7.17">
  <diagram name="PÃ¡gina-1" id="5A835Peb9h3HTME2GV20">
    <mxGraphModel dx="1172" dy="682" grid="0" gridSize="10" guides="1" tooltips="1" connect="1" arrows="1" fold="1" page="0" pageScale="1" pageWidth="827" pageHeight="1169" math="0" shadow="0">
      <root>
        <mxCell id="0" />
        <mxCell id="1" parent="0" />
        <mxCell id="36ayxp90gwQJMt-b5RXT-1" style="edgeStyle=orthogonalEdgeStyle;rounded=0;orthogonalLoop=1;jettySize=auto;html=1;exitX=0.5;exitY=1;exitDx=0;exitDy=0;entryX=0;entryY=0.5;entryDx=0;entryDy=0;" edge="1" parent="1" source="36ayxp90gwQJMt-b5RXT-2" target="36ayxp90gwQJMt-b5RXT-4">
          <mxGeometry relative="1" as="geometry">
            <Array as="points">
              <mxPoint x="70" y="130" />
            </Array>
          </mxGeometry>
        </mxCell>
        <mxCell id="36ayxp90gwQJMt-b5RXT-2" value="Inicio" style="rounded=0;whiteSpace=wrap;html=1;fillColor=#e1d5e7;strokeColor=#9673a6;" vertex="1" parent="1">
          <mxGeometry x="10" y="10" width="120" height="60" as="geometry" />
        </mxCell>
        <mxCell id="36ayxp90gwQJMt-b5RXT-3" style="edgeStyle=orthogonalEdgeStyle;rounded=0;orthogonalLoop=1;jettySize=auto;html=1;exitX=1;exitY=0.5;exitDx=0;exitDy=0;entryX=0;entryY=0.5;entryDx=0;entryDy=0;" edge="1" parent="1" source="36ayxp90gwQJMt-b5RXT-4" target="36ayxp90gwQJMt-b5RXT-6">
          <mxGeometry relative="1" as="geometry" />
        </mxCell>
        <mxCell id="36ayxp90gwQJMt-b5RXT-4" value="Soluciones" style="rounded=0;whiteSpace=wrap;html=1;fillColor=#d5e8d4;strokeColor=#82b366;" vertex="1" parent="1">
          <mxGeometry x="110" y="100" width="120" height="60" as="geometry" />
        </mxCell>
        <mxCell id="36ayxp90gwQJMt-b5RXT-5" style="edgeStyle=orthogonalEdgeStyle;rounded=0;orthogonalLoop=1;jettySize=auto;html=1;exitX=1;exitY=0.5;exitDx=0;exitDy=0;entryX=0;entryY=0.5;entryDx=0;entryDy=0;" edge="1" parent="1" source="36ayxp90gwQJMt-b5RXT-6" target="36ayxp90gwQJMt-b5RXT-10">
          <mxGeometry relative="1" as="geometry">
            <mxPoint x="400" y="209.9999999999999" as="targetPoint" />
          </mxGeometry>
        </mxCell>
        <mxCell id="36ayxp90gwQJMt-b5RXT-6" value="Servicios" style="rounded=0;whiteSpace=wrap;html=1;fillColor=#dae8fc;strokeColor=#6c8ebf;" vertex="1" parent="1">
          <mxGeometry x="300" y="100" width="120" height="60" as="geometry" />
        </mxCell>
        <mxCell id="36ayxp90gwQJMt-b5RXT-8" value="Productos" style="rounded=0;whiteSpace=wrap;html=1;fillColor=#dae8fc;strokeColor=#6c8ebf;" vertex="1" parent="1">
          <mxGeometry x="300" y="280" width="120" height="60" as="geometry" />
        </mxCell>
        <mxCell id="36ayxp90gwQJMt-b5RXT-9" style="edgeStyle=orthogonalEdgeStyle;rounded=0;orthogonalLoop=1;jettySize=auto;html=1;entryX=0;entryY=0.5;entryDx=0;entryDy=0;" edge="1" parent="1" target="36ayxp90gwQJMt-b5RXT-8">
          <mxGeometry relative="1" as="geometry">
            <mxPoint x="260" y="130" as="sourcePoint" />
            <mxPoint x="189.75" y="300" as="targetPoint" />
            <Array as="points">
              <mxPoint x="260" y="210" />
              <mxPoint x="260" y="520" />
            </Array>
          </mxGeometry>
        </mxCell>
        <mxCell id="36ayxp90gwQJMt-b5RXT-10" value="Domotica&amp;nbsp; e Inmotica" style="rounded=0;whiteSpace=wrap;html=1;fillColor=#f8cecc;strokeColor=#b85450;" vertex="1" parent="1">
          <mxGeometry x="510" y="100" width="120" height="60" as="geometry" />
        </mxCell>
        <mxCell id="36ayxp90gwQJMt-b5RXT-13" value="Sistemas de Seguridad" style="rounded=0;whiteSpace=wrap;html=1;fillColor=#f8cecc;strokeColor=#b85450;" vertex="1" parent="1">
          <mxGeometry x="510" y="199" width="120" height="60" as="geometry" />
        </mxCell>
        <mxCell id="36ayxp90gwQJMt-b5RXT-14" style="edgeStyle=orthogonalEdgeStyle;rounded=0;orthogonalLoop=1;jettySize=auto;html=1;entryX=0;entryY=0.5;entryDx=0;entryDy=0;" edge="1" parent="1" target="36ayxp90gwQJMt-b5RXT-13">
          <mxGeometry relative="1" as="geometry">
            <mxPoint x="460" y="130" as="sourcePoint" />
            <mxPoint x="379.75" y="349" as="targetPoint" />
            <Array as="points">
              <mxPoint x="460" y="229" />
            </Array>
          </mxGeometry>
        </mxCell>
        <mxCell id="36ayxp90gwQJMt-b5RXT-20" value="Proyectos" style="rounded=0;whiteSpace=wrap;html=1;fillColor=#d5e8d4;strokeColor=#82b366;" vertex="1" parent="1">
          <mxGeometry x="110" y="190" width="120" height="60" as="geometry" />
        </mxCell>
        <mxCell id="36ayxp90gwQJMt-b5RXT-21" value="Contacto" style="rounded=0;whiteSpace=wrap;html=1;fillColor=#d5e8d4;strokeColor=#82b366;" vertex="1" parent="1">
          <mxGeometry x="110" y="280" width="120" height="60" as="geometry" />
        </mxCell>
        <mxCell id="36ayxp90gwQJMt-b5RXT-22" style="edgeStyle=orthogonalEdgeStyle;rounded=0;orthogonalLoop=1;jettySize=auto;html=1;entryX=0;entryY=0.5;entryDx=0;entryDy=0;" edge="1" parent="1" target="36ayxp90gwQJMt-b5RXT-20">
          <mxGeometry relative="1" as="geometry">
            <mxPoint x="70" y="130" as="sourcePoint" />
            <mxPoint x="220" y="750" as="targetPoint" />
            <Array as="points">
              <mxPoint x="70" y="220" />
            </Array>
          </mxGeometry>
        </mxCell>
        <mxCell id="36ayxp90gwQJMt-b5RXT-23" style="edgeStyle=orthogonalEdgeStyle;rounded=0;orthogonalLoop=1;jettySize=auto;html=1;entryX=0;entryY=0.5;entryDx=0;entryDy=0;" edge="1" parent="1" target="36ayxp90gwQJMt-b5RXT-21">
          <mxGeometry relative="1" as="geometry">
            <mxPoint x="70" y="130" as="sourcePoint" />
            <mxPoint x="80" y="320" as="targetPoint" />
            <Array as="points">
              <mxPoint x="70" y="310" />
            </Array>
          </mxGeometry>
        </mxCell>
      </root>
    </mxGraphModel>
  </diagram>
</mxfile>
